<mxfile host="app.diagrams.net" modified="2024-04-30T14:24:00.792Z" agent="Mozilla/5.0 (Windows NT 10.0; Win64; x64) AppleWebKit/537.36 (KHTML, like Gecko) Chrome/124.0.0.0 Safari/537.36 Edg/124.0.0.0" etag="7p5GC0Ng7sg6fkuL08Yb" version="24.3.1" type="device">
  <diagram name="Página-1" id="f1Uw9RX247ivMhUyow-y">
    <mxGraphModel dx="1386" dy="1920" grid="0" gridSize="10" guides="1" tooltips="1" connect="1" arrows="1" fold="1" page="1" pageScale="1" pageWidth="827" pageHeight="1169" math="0" shadow="0">
      <root>
        <mxCell id="0" />
        <mxCell id="1" parent="0" />
        <mxCell id="hzu81k8hPF8XKi1bamDi-6" value="tabela usuario" style="swimlane;fontStyle=0;childLayout=stackLayout;horizontal=1;startSize=26;fillColor=none;horizontalStack=0;resizeParent=1;resizeParentMax=0;resizeLast=0;collapsible=1;marginBottom=0;whiteSpace=wrap;html=1;" vertex="1" parent="1">
          <mxGeometry x="17" y="-849" width="204" height="156" as="geometry">
            <mxRectangle x="17" y="-849" width="110" height="26" as="alternateBounds" />
          </mxGeometry>
        </mxCell>
        <mxCell id="hzu81k8hPF8XKi1bamDi-7" value="usuario: CharFild" style="text;strokeColor=none;fillColor=none;align=left;verticalAlign=top;spacingLeft=4;spacingRight=4;overflow=hidden;rotatable=0;points=[[0,0.5],[1,0.5]];portConstraint=eastwest;whiteSpace=wrap;html=1;" vertex="1" parent="hzu81k8hPF8XKi1bamDi-6">
          <mxGeometry y="26" width="204" height="26" as="geometry" />
        </mxCell>
        <mxCell id="hzu81k8hPF8XKi1bamDi-8" value="pri_nome: CharFild" style="text;strokeColor=none;fillColor=none;align=left;verticalAlign=top;spacingLeft=4;spacingRight=4;overflow=hidden;rotatable=0;points=[[0,0.5],[1,0.5]];portConstraint=eastwest;whiteSpace=wrap;html=1;" vertex="1" parent="hzu81k8hPF8XKi1bamDi-6">
          <mxGeometry y="52" width="204" height="26" as="geometry" />
        </mxCell>
        <mxCell id="hzu81k8hPF8XKi1bamDi-9" value="ult_nome: CharFild" style="text;strokeColor=none;fillColor=none;align=left;verticalAlign=top;spacingLeft=4;spacingRight=4;overflow=hidden;rotatable=0;points=[[0,0.5],[1,0.5]];portConstraint=eastwest;whiteSpace=wrap;html=1;" vertex="1" parent="hzu81k8hPF8XKi1bamDi-6">
          <mxGeometry y="78" width="204" height="26" as="geometry" />
        </mxCell>
        <mxCell id="hzu81k8hPF8XKi1bamDi-20" value="email: CharFild" style="text;strokeColor=none;fillColor=none;align=left;verticalAlign=top;spacingLeft=4;spacingRight=4;overflow=hidden;rotatable=0;points=[[0,0.5],[1,0.5]];portConstraint=eastwest;whiteSpace=wrap;html=1;" vertex="1" parent="hzu81k8hPF8XKi1bamDi-6">
          <mxGeometry y="104" width="204" height="26" as="geometry" />
        </mxCell>
        <mxCell id="hzu81k8hPF8XKi1bamDi-21" value="senha: CharFild" style="text;strokeColor=none;fillColor=none;align=left;verticalAlign=top;spacingLeft=4;spacingRight=4;overflow=hidden;rotatable=0;points=[[0,0.5],[1,0.5]];portConstraint=eastwest;whiteSpace=wrap;html=1;" vertex="1" parent="hzu81k8hPF8XKi1bamDi-6">
          <mxGeometry y="130" width="204" height="26" as="geometry" />
        </mxCell>
        <mxCell id="hzu81k8hPF8XKi1bamDi-15" value="tabela pessoa" style="swimlane;fontStyle=0;childLayout=stackLayout;horizontal=1;startSize=26;fillColor=none;horizontalStack=0;resizeParent=1;resizeParentMax=0;resizeLast=0;collapsible=1;marginBottom=0;whiteSpace=wrap;html=1;" vertex="1" parent="1">
          <mxGeometry x="565" y="-806" width="197" height="169" as="geometry">
            <mxRectangle x="374" y="-837" width="110" height="26" as="alternateBounds" />
          </mxGeometry>
        </mxCell>
        <mxCell id="hzu81k8hPF8XKi1bamDi-16" value="nome_completo: CharFild" style="text;strokeColor=none;fillColor=none;align=left;verticalAlign=top;spacingLeft=4;spacingRight=4;overflow=hidden;rotatable=0;points=[[0,0.5],[1,0.5]];portConstraint=eastwest;whiteSpace=wrap;html=1;" vertex="1" parent="hzu81k8hPF8XKi1bamDi-15">
          <mxGeometry y="26" width="197" height="26" as="geometry" />
        </mxCell>
        <mxCell id="hzu81k8hPF8XKi1bamDi-17" value="data_nascimento: DateFild" style="text;strokeColor=none;fillColor=none;align=left;verticalAlign=top;spacingLeft=4;spacingRight=4;overflow=hidden;rotatable=0;points=[[0,0.5],[1,0.5]];portConstraint=eastwest;whiteSpace=wrap;html=1;" vertex="1" parent="hzu81k8hPF8XKi1bamDi-15">
          <mxGeometry y="52" width="197" height="26" as="geometry" />
        </mxCell>
        <mxCell id="hzu81k8hPF8XKi1bamDi-18" value="cpf: integeFild" style="text;strokeColor=none;fillColor=none;align=left;verticalAlign=top;spacingLeft=4;spacingRight=4;overflow=hidden;rotatable=0;points=[[0,0.5],[1,0.5]];portConstraint=eastwest;whiteSpace=wrap;html=1;" vertex="1" parent="hzu81k8hPF8XKi1bamDi-15">
          <mxGeometry y="78" width="197" height="26" as="geometry" />
        </mxCell>
        <mxCell id="hzu81k8hPF8XKi1bamDi-22" value="enderoço: CharFild" style="text;strokeColor=none;fillColor=none;align=left;verticalAlign=top;spacingLeft=4;spacingRight=4;overflow=hidden;rotatable=0;points=[[0,0.5],[1,0.5]];portConstraint=eastwest;whiteSpace=wrap;html=1;" vertex="1" parent="hzu81k8hPF8XKi1bamDi-15">
          <mxGeometry y="104" width="197" height="26" as="geometry" />
        </mxCell>
        <mxCell id="hzu81k8hPF8XKi1bamDi-23" value="usuario: one to oneFild" style="text;strokeColor=none;fillColor=none;align=left;verticalAlign=top;spacingLeft=4;spacingRight=4;overflow=hidden;rotatable=0;points=[[0,0.5],[1,0.5]];portConstraint=eastwest;whiteSpace=wrap;html=1;" vertex="1" parent="hzu81k8hPF8XKi1bamDi-15">
          <mxGeometry y="130" width="197" height="39" as="geometry" />
        </mxCell>
        <mxCell id="hzu81k8hPF8XKi1bamDi-24" value="tabela produto" style="swimlane;fontStyle=0;childLayout=stackLayout;horizontal=1;startSize=26;fillColor=none;horizontalStack=0;resizeParent=1;resizeParentMax=0;resizeLast=0;collapsible=1;marginBottom=0;whiteSpace=wrap;html=1;" vertex="1" parent="1">
          <mxGeometry x="11" y="-535" width="176" height="156" as="geometry">
            <mxRectangle x="11" y="-535" width="234" height="59" as="alternateBounds" />
          </mxGeometry>
        </mxCell>
        <mxCell id="hzu81k8hPF8XKi1bamDi-25" value="nome: CharFild" style="text;strokeColor=none;fillColor=none;align=left;verticalAlign=top;spacingLeft=4;spacingRight=4;overflow=hidden;rotatable=0;points=[[0,0.5],[1,0.5]];portConstraint=eastwest;whiteSpace=wrap;html=1;" vertex="1" parent="hzu81k8hPF8XKi1bamDi-24">
          <mxGeometry y="26" width="176" height="26" as="geometry" />
        </mxCell>
        <mxCell id="hzu81k8hPF8XKi1bamDi-26" value="descriçao:TextFild" style="text;strokeColor=none;fillColor=none;align=left;verticalAlign=top;spacingLeft=4;spacingRight=4;overflow=hidden;rotatable=0;points=[[0,0.5],[1,0.5]];portConstraint=eastwest;whiteSpace=wrap;html=1;" vertex="1" parent="hzu81k8hPF8XKi1bamDi-24">
          <mxGeometry y="52" width="176" height="26" as="geometry" />
        </mxCell>
        <mxCell id="hzu81k8hPF8XKi1bamDi-27" value="estoque: IntegeFild" style="text;strokeColor=none;fillColor=none;align=left;verticalAlign=top;spacingLeft=4;spacingRight=4;overflow=hidden;rotatable=0;points=[[0,0.5],[1,0.5]];portConstraint=eastwest;whiteSpace=wrap;html=1;" vertex="1" parent="hzu81k8hPF8XKi1bamDi-24">
          <mxGeometry y="78" width="176" height="26" as="geometry" />
        </mxCell>
        <mxCell id="hzu81k8hPF8XKi1bamDi-28" value="valor: floaltFild" style="text;strokeColor=none;fillColor=none;align=left;verticalAlign=top;spacingLeft=4;spacingRight=4;overflow=hidden;rotatable=0;points=[[0,0.5],[1,0.5]];portConstraint=eastwest;whiteSpace=wrap;html=1;" vertex="1" parent="hzu81k8hPF8XKi1bamDi-24">
          <mxGeometry y="104" width="176" height="26" as="geometry" />
        </mxCell>
        <mxCell id="hzu81k8hPF8XKi1bamDi-29" value="categoria: floreignkey" style="text;strokeColor=none;fillColor=none;align=left;verticalAlign=top;spacingLeft=4;spacingRight=4;overflow=hidden;rotatable=0;points=[[0,0.5],[1,0.5]];portConstraint=eastwest;whiteSpace=wrap;html=1;" vertex="1" parent="hzu81k8hPF8XKi1bamDi-24">
          <mxGeometry y="130" width="176" height="26" as="geometry" />
        </mxCell>
        <mxCell id="hzu81k8hPF8XKi1bamDi-30" value="tabela categoria produtos" style="swimlane;fontStyle=0;childLayout=stackLayout;horizontal=1;startSize=26;fillColor=none;horizontalStack=0;resizeParent=1;resizeParentMax=0;resizeLast=0;collapsible=1;marginBottom=0;whiteSpace=wrap;html=1;" vertex="1" parent="1">
          <mxGeometry x="342" y="-577" width="202" height="52" as="geometry">
            <mxRectangle x="440" y="-542" width="226" height="27" as="alternateBounds" />
          </mxGeometry>
        </mxCell>
        <mxCell id="hzu81k8hPF8XKi1bamDi-31" value="nome: CharFild" style="text;strokeColor=none;fillColor=none;align=left;verticalAlign=top;spacingLeft=4;spacingRight=4;overflow=hidden;rotatable=0;points=[[0,0.5],[1,0.5]];portConstraint=eastwest;whiteSpace=wrap;html=1;" vertex="1" parent="hzu81k8hPF8XKi1bamDi-30">
          <mxGeometry y="26" width="202" height="26" as="geometry" />
        </mxCell>
        <mxCell id="hzu81k8hPF8XKi1bamDi-34" value="tabela categoria produtos" style="swimlane;fontStyle=0;childLayout=stackLayout;horizontal=1;startSize=26;fillColor=none;horizontalStack=0;resizeParent=1;resizeParentMax=0;resizeLast=0;collapsible=1;marginBottom=0;whiteSpace=wrap;html=1;" vertex="1" parent="1">
          <mxGeometry x="503" y="-427" width="227" height="52" as="geometry" />
        </mxCell>
        <mxCell id="hzu81k8hPF8XKi1bamDi-35" value="nome: CharFild" style="text;strokeColor=none;fillColor=none;align=left;verticalAlign=top;spacingLeft=4;spacingRight=4;overflow=hidden;rotatable=0;points=[[0,0.5],[1,0.5]];portConstraint=eastwest;whiteSpace=wrap;html=1;" vertex="1" parent="hzu81k8hPF8XKi1bamDi-34">
          <mxGeometry y="26" width="227" height="26" as="geometry" />
        </mxCell>
        <mxCell id="hzu81k8hPF8XKi1bamDi-38" style="edgeStyle=orthogonalEdgeStyle;rounded=0;orthogonalLoop=1;jettySize=auto;html=1;exitX=1;exitY=0.25;exitDx=0;exitDy=0;entryX=0.921;entryY=-0.077;entryDx=0;entryDy=0;entryPerimeter=0;" edge="1" parent="hzu81k8hPF8XKi1bamDi-34" source="hzu81k8hPF8XKi1bamDi-34" target="hzu81k8hPF8XKi1bamDi-35">
          <mxGeometry relative="1" as="geometry" />
        </mxCell>
        <mxCell id="hzu81k8hPF8XKi1bamDi-42" value="" style="endArrow=classic;html=1;rounded=0;entryX=1;entryY=0;entryDx=0;entryDy=0;exitX=-0.02;exitY=0.692;exitDx=0;exitDy=0;exitPerimeter=0;edgeStyle=orthogonalEdgeStyle;" edge="1" parent="1" source="hzu81k8hPF8XKi1bamDi-23" target="hzu81k8hPF8XKi1bamDi-6">
          <mxGeometry width="50" height="50" relative="1" as="geometry">
            <mxPoint x="341" y="-665" as="sourcePoint" />
            <mxPoint x="391" y="-715" as="targetPoint" />
          </mxGeometry>
        </mxCell>
        <mxCell id="hzu81k8hPF8XKi1bamDi-43" value="" style="endArrow=classic;html=1;rounded=0;entryX=1.028;entryY=0.077;entryDx=0;entryDy=0;entryPerimeter=0;edgeStyle=elbowEdgeStyle;" edge="1" parent="1" target="hzu81k8hPF8XKi1bamDi-24">
          <mxGeometry width="50" height="50" relative="1" as="geometry">
            <mxPoint x="495" y="-424" as="sourcePoint" />
            <mxPoint x="439" y="-503" as="targetPoint" />
          </mxGeometry>
        </mxCell>
      </root>
    </mxGraphModel>
  </diagram>
</mxfile>
